<svg width="24" height="24" viewBox="0 0 24 24" xmlns="http://www.w3.org/2000/svg">
    <path d="M19.438 7.407c-.57.237-1.18.399-1.82.47a3.034 3.034 0 0 0 1.391-1.659 6.565 6.565 0 0 1-2.01.729A3.25 3.25 0 0 0 14.686 6c-1.748 0-3.166 1.343-3.166 2.999 0 .235.027.464.082.682-2.632-.124-4.965-1.32-6.526-3.134a2.87 2.87 0 0 0-.429 1.507c0 1.04.56 1.959 1.41 2.495a3.296 3.296 0 0 1-1.435-.375v.037c0 1.453 1.091 2.665 2.54 2.94a3.377 3.377 0 0 1-1.43.05c.403 1.191 1.573 2.06 2.957 2.083a6.581 6.581 0 0 1-3.934 1.285c-.255 0-.506-.016-.755-.042a9.33 9.33 0 0 0 4.855 1.348c5.824 0 9.01-4.569 9.01-8.532 0-.13-.003-.26-.01-.388a6.228 6.228 0 0 0 1.58-1.553l.003.005z" fill="#171717" fill-rule="nonzero"/>
</svg>
