<?xml version="1.0" encoding="UTF-8"?>
<svg width="24px" height="24px" viewBox="0 0 24 24" version="1.1" xmlns="http://www.w3.org/2000/svg" xmlns:xlink="http://www.w3.org/1999/xlink">
    <title>A3C0B1D0-98EF-4A59-907E-D5609DD3CAE6</title>
    <g id="Page-1" stroke="none" stroke-width="1" fill="none" fill-rule="evenodd">
        <g id="1920-Home" transform="translate(-1732.000000, -11869.000000)" fill="#171717" fill-rule="nonzero">
            <g id="Group-10" transform="translate(0.000000, 10327.000000)">
                <g id="1920/Footer" transform="translate(0.000000, 989.000000)">
                    <g id="Stacked-Group" transform="translate(1590.000000, 545.000000)">
                        <g id="Button/Filled-round" transform="translate(134.000000, 0.000000)">
                            <g id="Icons-/-LinkedIn" transform="translate(8.000000, 8.000000)">
                                <g id="Group-70" transform="translate(5.000000, 5.000000)">
                                    <path d="M3.02457179,12.6533835 L3.02457179,4.11572372 L0.168816549,4.11572372 L0.168816549,12.6533835 L3.02457179,12.6533835 Z M1.59667946,2.95004687 C2.59254897,2.95004687 3.21238989,2.2944591 3.21238989,1.47515587 C3.19382978,0.637400435 2.59254897,0 1.6155731,0 C0.638705136,0 0,0.637400435 0,1.47515587 C0,2.2944591 0.619713397,2.95004687 1.5780703,2.95004687 L1.59663041,2.95004687 L1.59667946,2.95004687 Z" id="Shape"></path>
                                    <path d="M4.60456481,12.6532854 L7.46028082,12.6532854 L7.46028082,7.88553489 C7.46028082,7.63038245 7.4788213,7.3754262 7.55425853,7.19306234 C7.76075446,6.68324793 8.23064304,6.15518734 9.01954576,6.15518734 C10.0529083,6.15518734 10.4661944,6.93810609 10.4661944,8.08585065 L10.4661944,12.6532854 L13.321724,12.6532854 L13.321724,7.75800772 C13.321724,5.13555853 11.912843,3.91529024 10.0339754,3.91529024 C8.49344712,3.91529024 7.81706261,4.77097796 7.44134793,5.3538262 L7.46037891,5.3538262 L7.46037891,4.11563543 L4.60456481,4.11563543 C4.64211666,4.91680038 4.60456481,12.6532854 4.60456481,12.6532854 L4.60456481,12.6532854 Z" id="Path"></path>
                                </g>
                            </g>
                        </g>
                    </g>
                </g>
            </g>
        </g>
    </g>
</svg>