<svg width="24" height="24" viewBox="0 0 24 24" xmlns="http://www.w3.org/2000/svg">
    <g fill="#171717" fill-rule="nonzero">
        <path d="M8.651 6c2.022 0 3.617 1.04 3.617 3.17s-1.95 2.265-1.95 2.265c2.57 0 2.394 2.956 2.394 2.956 0 3.468-3.7 3.517-4.036 3.514H2V6zm.025 6.608H4.93v3.18h3.532c.53-.01 1.536-.153 1.536-1.546 0-1.519-1.14-1.627-1.323-1.634zM8.65 8.116h-3.72v2.657h3.49c.603 0 1.135-.18 1.135-1.418 0-1.24-.905-1.24-.905-1.24z"/>
        <path d="M17.072 8.381c4.587 0 3.945 5.392 3.945 5.392h-5.873c0 2.307 1.995 2.16 1.995 2.16 1.681 0 1.809-1.064 1.817-1.292v-.043h1.994c0 3.063-2.892 3.299-3.681 3.307h-.107l-.09-.004c-4.015 0-4.344-3.534-4.358-4.504v-.16l.003-.084c.002-.192.085-4.772 4.355-4.772zm.044 1.82c-1.75 0-1.994 1.914-1.994 1.914h3.723v-.03c-.006-.244-.108-1.885-1.729-1.885zM19.857 7.19h-5.952V6h5.952z"/>
    </g>
</svg>
