<svg width="152" height="30" viewBox="0 0 152 30" fill="none" xmlns="http://www.w3.org/2000/svg">
<g clip-path="url(#clip0_1211_4431)">
<path d="M131.252 5.25V23.6357H134.711V9.80486H140.372V6.36343H134.711V5.24914C134.711 4.25743 135.517 3.45257 136.511 3.45257H140.469V0H136.511C135.117 0.00113497 133.78 0.554623 132.793 1.53894C131.807 2.52326 131.253 3.85796 131.252 5.25H131.252ZM147.609 20.184C147.132 20.1831 146.674 19.9935 146.337 19.6566C145.999 19.3197 145.809 18.8631 145.808 18.3866V9.804H151.47V6.36343H145.808V0H142.353V18.3866C142.354 19.7779 142.908 21.1119 143.893 22.0961C144.878 23.0803 146.214 23.6343 147.608 23.6366H151.57V20.184H147.609ZM124.191 6.36343H119.409C118.249 6.36973 117.138 6.83268 116.317 7.65176C115.496 8.47084 115.033 9.57995 115.026 10.7383V19.2454C115.033 20.4038 115.496 21.5129 116.317 22.332C117.138 23.151 118.249 23.614 119.409 23.6203H124.191C125.353 23.6203 126.468 23.1594 127.29 22.3389C128.112 21.5185 128.574 20.4057 128.574 19.2454V10.7383C128.574 9.578 128.112 8.46524 127.29 7.64479C126.468 6.82435 125.353 6.36343 124.191 6.36343ZM125.119 10.7383V19.2454C125.119 19.764 124.698 20.184 124.179 20.184H119.397C118.878 20.184 118.457 19.764 118.457 19.2454V10.7383C118.457 10.489 118.556 10.2498 118.732 10.0731C118.908 9.8964 119.148 9.79656 119.397 9.79543H124.179C124.429 9.79656 124.668 9.8964 124.844 10.0731C125.02 10.2498 125.119 10.489 125.119 10.7383ZM108.782 13.1803H103.714C103.502 13.1803 103.3 13.0965 103.15 12.9473C103.001 12.7981 102.917 12.5958 102.917 12.3849V10.5831C102.917 10.1443 103.273 9.78771 103.714 9.78771H112.512V6.36343H103.714C102.59 6.36456 101.513 6.81018 100.719 7.60261C99.9239 8.39503 99.4764 9.46963 99.4741 10.5909V12.4089C99.4753 13.5308 99.9223 14.6065 100.717 15.3999C101.512 16.1932 102.59 16.6394 103.714 16.6406H108.782C109.222 16.6406 109.579 16.9971 109.579 17.436V19.4246C109.579 19.6355 109.495 19.8379 109.346 19.987C109.196 20.1362 108.994 20.22 108.782 20.22H100.016V23.6726H108.782C109.906 23.6714 110.984 23.2252 111.779 22.4319C112.574 21.6385 113.021 20.5628 113.022 19.4409V17.4523C113.027 16.8933 112.921 16.339 112.71 15.8212C112.499 15.3034 112.187 14.8323 111.793 14.4352C111.399 14.0381 110.93 13.7228 110.413 13.5074C109.897 13.292 109.342 13.1808 108.782 13.1803ZM16.3971 6.348H19.8562V23.6529H16.3971V6.348ZM16.3971 0.0162857H19.8562V4.63371H16.3971V0.0162857ZM31.2124 11.1086L26.4033 6.348H22.4977V23.6606H25.9559V10.7657L31.2287 15.9831L36.5195 10.674V23.6597H39.9743V6.348H35.9536L31.2124 11.1086ZM51.2833 6.36343H42.6356V30H46.0912V23.6366H51.2712C52.5842 23.6343 53.8426 23.1127 54.7709 22.186C55.6992 21.2592 56.2216 20.003 56.2237 18.6926V11.2989C56.2194 9.99196 55.6976 8.73975 54.7722 7.81523C53.8467 6.89071 52.5926 6.36885 51.2833 6.36343ZM52.7809 11.3074V18.7131C52.7796 19.1092 52.6213 19.4886 52.3408 19.7687C52.0602 20.0487 51.68 20.2066 51.2833 20.208H46.1032V9.804H51.2833C51.68 9.80536 52.0602 9.96328 52.3408 10.2433C52.6213 10.5234 52.7796 10.9028 52.7809 11.2989V11.3074ZM58.9176 11.6057V23.6726H62.3724V11.6057C62.3724 10.6106 63.1805 9.804 64.1775 9.804H68.1381V6.36343H64.1818C62.7877 6.36342 61.4506 6.91535 60.4637 7.89813C59.4768 8.8809 58.9208 10.2143 58.9176 11.6057ZM79.192 6.36343H74.4104C73.8348 6.36332 73.2647 6.47639 72.7328 6.6962C72.201 6.91601 71.7177 7.23824 71.3106 7.64449C70.9035 8.05075 70.5805 8.53306 70.3602 9.0639C70.1399 9.59474 70.0265 10.1637 70.0265 10.7383V19.2454C70.0265 19.82 70.1399 20.389 70.3602 20.9198C70.5805 21.4506 70.9035 21.933 71.3106 22.3392C71.7177 22.7455 72.201 23.0677 72.7328 23.2875C73.2647 23.5073 73.8348 23.6204 74.4104 23.6203H79.192C80.3545 23.6203 81.4693 23.1594 82.2913 22.3389C83.1133 21.5185 83.5751 20.4057 83.5751 19.2454V10.7383C83.5751 9.578 83.1133 8.46524 82.2913 7.64479C81.4693 6.82435 80.3545 6.36343 79.192 6.36343ZM80.1323 19.254C80.1323 19.5029 80.0333 19.7417 79.8569 19.9177C79.6806 20.0937 79.4414 20.1926 79.192 20.1926H74.4104C73.8909 20.1926 73.4692 19.7726 73.4692 19.254V10.7383C73.4692 10.4888 73.5683 10.2495 73.7447 10.0728C73.9211 9.89607 74.1605 9.79634 74.4104 9.79543H79.192C79.4418 9.79656 79.681 9.8964 79.8572 10.0731C80.0334 10.2498 80.1323 10.489 80.1323 10.7383V19.254ZM9.33211 6.36343H1.07946V9.816H9.33211C9.45954 9.81555 9.5858 9.8402 9.70367 9.88853C9.82153 9.93686 9.92869 10.0079 10.019 10.0977C10.1093 10.1874 10.181 10.294 10.2299 10.4115C10.2789 10.5289 10.3041 10.6548 10.3042 10.782V12.4646H4.256C3.129 12.4655 2.0483 12.9121 1.25059 13.7068C0.452874 14.5014 0.00318068 15.5791 0 16.704L0 19.4169C0.002273 20.5423 0.451566 21.621 1.24938 22.4163C2.04719 23.2117 3.12841 23.6588 4.256 23.6597H13.7624V10.7709C13.757 9.60124 13.288 8.48133 12.4578 7.6558C11.6277 6.83028 10.5039 6.36626 9.33211 6.36514V6.36343ZM10.3042 15.9086V20.208H4.256C4.04464 20.208 3.84194 20.1242 3.69249 19.975C3.54304 19.8259 3.45907 19.6235 3.45907 19.4126V16.704C3.45907 16.2651 3.81546 15.9086 4.256 15.9086H10.3042Z" fill="black"/>
<path d="M90.0698 18.414H93.5289V23.6357H90.0698V18.414Z" fill="#FF6F43"/>
</g>
<defs>
<clipPath id="clip0_1211_4431">
<rect width="152" height="30" fill="white"/>
</clipPath>
</defs>
</svg>
