<svg width="152" height="30" viewBox="0 0 152 30" fill="none" xmlns="http://www.w3.org/2000/svg">
<g clip-path="url(#clip0_1278_684)">
<path d="M130.191 5.22413V23.5086H133.649V9.77545H139.293V6.33227H133.649V5.22413C133.649 4.23471 134.444 3.44317 135.438 3.44317H139.373V0H135.438C132.536 0 130.191 2.33503 130.191 5.22413Z" fill="white"/>
<path d="M146.487 20.105C145.494 20.105 144.699 19.3134 144.699 18.324V9.77545H150.343V6.33227H144.699V0H141.241V18.2844C141.241 21.1735 143.586 23.5086 146.487 23.5086H150.422V20.0654H146.487V20.105Z" fill="white"/>
<path d="M123.156 6.33228H118.387C115.962 6.33228 114.015 8.31111 114.015 10.6857V19.1551C114.015 21.5693 116.002 23.5086 118.387 23.5086H123.156C125.581 23.5086 127.528 21.5297 127.528 19.1551V10.6857C127.528 8.27153 125.581 6.33228 123.156 6.33228ZM124.07 10.6857V19.1551C124.07 19.6696 123.633 20.105 123.116 20.105H118.347C117.83 20.105 117.393 19.6696 117.393 19.1551V10.6857C117.393 10.1712 117.83 9.73587 118.347 9.73587H123.116C123.673 9.77545 124.07 10.1712 124.07 10.6857Z" fill="white"/>
<path d="M107.774 13.0999H102.727C102.29 13.0999 101.932 12.7437 101.932 12.3084V10.4878C101.932 10.0525 102.29 9.6963 102.727 9.6963H111.511V6.33228H102.727C100.382 6.33228 98.5137 8.23196 98.5137 10.5274V12.3479C98.5137 14.683 100.421 16.5431 102.727 16.5431H107.774C108.212 16.5431 108.569 16.8993 108.569 17.3346V19.3134C108.569 19.7488 108.212 20.105 107.774 20.105H99.0304V23.5481H107.774C110.119 23.5481 111.988 21.6485 111.988 19.353V17.3742C111.988 14.9996 110.08 13.0999 107.774 13.0999Z" fill="white"/>
<path d="M19.0619 6.33228H15.604V23.5481H19.0619V6.33228Z" fill="white"/>
<path d="M19.0619 0H15.604V4.5909H19.0619V0Z" fill="white"/>
<path d="M30.3892 11.0419L25.6197 6.33228H21.7246V23.5481H25.1428V10.7253L30.429 15.9098L35.6754 10.6066V23.5481H39.1333V6.33228H35.119L30.3892 11.0419Z" fill="white"/>
<path d="M50.4213 6.33228H41.7964V29.8408H45.2543V23.5481H50.4213C53.1637 23.5481 55.3498 21.3319 55.3498 18.6406V11.2398C55.3498 8.54857 53.1637 6.33228 50.4213 6.33228ZM51.9316 11.2398V18.6011C51.9316 19.4322 51.2559 20.105 50.4213 20.105H45.2543V9.77545H50.4213C51.2559 9.77545 51.9316 10.4087 51.9316 11.2398Z" fill="white"/>
<path d="M58.0527 11.5564V23.5481H61.5106V11.5564C61.5106 10.567 62.3056 9.77545 63.2992 9.77545H67.2341V6.33228H63.2992C60.3978 6.33228 58.0527 8.6673 58.0527 11.5564Z" fill="white"/>
<path d="M78.2431 6.33228H73.4736C71.0491 6.33228 69.1016 8.31111 69.1016 10.6857V19.1551C69.1016 21.5693 71.0889 23.5086 73.4736 23.5086H78.2431C80.6676 23.5086 82.6152 21.5297 82.6152 19.1551V10.6857C82.6549 8.27153 80.6676 6.33228 78.2431 6.33228ZM79.197 19.1551C79.197 19.6696 78.7598 20.105 78.2431 20.105H73.4736C72.9569 20.105 72.5197 19.6696 72.5197 19.1551V10.6857C72.5197 10.1712 72.9569 9.73587 73.4736 9.73587H78.2431C78.7598 9.73587 79.197 10.1712 79.197 10.6857V19.1551Z" fill="white"/>
<path d="M8.56862 6.33228H0.341207V9.77545H8.56862C9.08532 9.77545 9.52252 10.2108 9.52252 10.7253V12.3875H3.52088C1.17587 12.3875 -0.731934 14.2872 -0.731934 16.6222V19.3134C-0.731934 21.6485 1.17587 23.5481 3.52088 23.5481H13.0202V10.7253C12.9804 8.31111 11.0329 6.33228 8.56862 6.33228ZM9.56227 15.8307V20.105H3.52088C3.08368 20.105 2.72596 19.7488 2.72596 19.3134V16.6222C2.72596 16.1869 3.08368 15.8307 3.52088 15.8307H9.56227Z" fill="white"/>
<path d="M92.5521 18.3241H89.0942V23.5086H92.5521V18.3241Z" fill="#FF6233"/>
</g>
<defs>
<clipPath id="clip0_1278_684">
<rect width="152" height="30" fill="white"/>
</clipPath>
</defs>
</svg>
